<svg width="25" height="24" viewBox="0 0 25 24" fill="none" xmlns="http://www.w3.org/2000/svg">
<circle cx="12.8001" cy="12" r="10.5" fill="#007AFF" stroke="white" stroke-width="3"/>
<path d="M12.8001 14.5C13.9047 14.5 14.8001 13.6046 14.8001 12.5C14.8001 11.3954 13.9047 10.5 12.8001 10.5C11.6956 10.5 10.8001 11.3954 10.8001 12.5C10.8001 13.6046 11.6956 14.5 12.8001 14.5Z" fill="white"/>
<path d="M19.0501 8.5H16.4564C16.3626 8.5 16.2464 8.43937 16.1558 8.34375L15.3033 7.00625C14.9564 6.5 14.8001 6.5 14.2376 6.5H11.3626C10.8001 6.5 10.6126 6.5 10.298 7.00656L9.44452 8.34375C9.37514 8.41938 9.27764 8.5 9.17514 8.5V8C9.17514 7.9337 9.1488 7.87011 9.10192 7.82322C9.05503 7.77634 8.99144 7.75 8.92514 7.75H7.67514C7.60884 7.75 7.54525 7.77634 7.49836 7.82322C7.45148 7.87011 7.42514 7.9337 7.42514 8V8.5H6.55014C6.35123 8.5 6.16046 8.57902 6.01981 8.71967C5.87916 8.86032 5.80014 9.05109 5.80014 9.25V16.75C5.80014 16.9489 5.87916 17.1397 6.01981 17.2803C6.16046 17.421 6.35123 17.5 6.55014 17.5H19.0501C19.2491 17.5 19.4398 17.421 19.5805 17.2803C19.7211 17.1397 19.8001 16.9489 19.8001 16.75V9.25C19.8001 9.05109 19.7211 8.86032 19.5805 8.71967C19.4398 8.57902 19.2491 8.5 19.0501 8.5ZM12.9411 15.4969C12.3364 15.5253 11.7373 15.3701 11.2224 15.0517C10.7076 14.7333 10.3011 14.2666 10.0564 13.713C9.81167 13.1593 9.74018 12.5445 9.8513 11.9495C9.96242 11.3544 10.251 10.8069 10.679 10.3789C11.107 9.95082 11.6546 9.66228 12.2496 9.55116C12.8447 9.44004 13.4594 9.51153 14.0131 9.75624C14.5668 10.001 15.0335 10.4074 15.3518 10.9223C15.6702 11.4371 15.8254 12.0363 15.797 12.6409C15.7612 13.3868 15.4488 14.0926 14.9208 14.6206C14.3928 15.1487 13.687 15.4611 12.9411 15.4969Z" fill="white"/>
</svg>
