<svg width="142" height="24" viewBox="0 0 142 24" fill="none" xmlns="http://www.w3.org/2000/svg">
<g clip-path="url(#clip0_444_239)">
<path d="M130.004 7.95708C127.732 7.95708 125.9 9.76059 125.9 11.9965C125.9 14.2325 127.732 16.036 130.004 16.036C132.275 16.036 134.107 14.2325 134.107 11.9965C134.107 9.76059 132.275 7.95708 130.004 7.95708ZM130.004 14.6227C128.536 14.6227 127.336 13.445 127.336 11.9965C127.336 10.5481 128.532 9.37036 130.004 9.37036C131.475 9.37036 132.672 10.5481 132.672 11.9965C132.672 13.445 131.472 14.6227 130.004 14.6227ZM135.232 7.79184C135.232 8.31567 134.804 8.73403 134.275 8.73403C133.743 8.73403 133.318 8.31216 133.318 7.79184C133.318 7.27153 133.747 6.84966 134.275 6.84966C134.804 6.84966 135.232 7.27153 135.232 7.79184ZM137.95 8.74809C137.889 7.48598 137.597 6.36802 136.657 5.44692C135.722 4.52583 134.586 4.23755 133.304 4.17427C131.982 4.10044 128.022 4.10044 126.7 4.17427C125.422 4.23403 124.286 4.52231 123.347 5.44341C122.407 6.3645 122.118 7.48247 122.054 8.74458C121.979 10.0454 121.979 13.9442 122.054 15.245C122.114 16.5071 122.407 17.625 123.347 18.5461C124.286 19.4672 125.418 19.7555 126.7 19.8188C128.022 19.8926 131.982 19.8926 133.304 19.8188C134.586 19.759 135.722 19.4707 136.657 18.5461C137.593 17.625 137.886 16.5071 137.95 15.245C138.025 13.9442 138.025 10.0489 137.95 8.74809ZM136.243 16.6407C135.964 17.3297 135.425 17.8606 134.722 18.1383C133.668 18.5497 131.168 18.4547 130.004 18.4547C128.839 18.4547 126.336 18.5461 125.286 18.1383C124.586 17.8641 124.047 17.3332 123.764 16.6407C123.347 15.6036 123.443 13.1426 123.443 11.9965C123.443 10.8504 123.35 8.38598 123.764 7.35239C124.043 6.66333 124.582 6.13247 125.286 5.85474C126.339 5.44341 128.839 5.53833 130.004 5.53833C131.168 5.53833 133.672 5.44692 134.722 5.85474C135.422 6.12895 135.961 6.65981 136.243 7.35239C136.661 8.3895 136.564 10.8504 136.564 11.9965C136.564 13.1426 136.661 15.6071 136.243 16.6407Z" fill="white"/>
</g>
<g clip-path="url(#clip1_444_239)">
<path d="M86.6328 18.9999V8.87941H83.2025V18.9999H86.6328ZM84.9181 7.4968C86.1143 7.4968 86.8589 6.71966 86.8589 5.7485C86.8366 4.75544 86.1144 3.99988 84.9408 3.99988C83.7674 3.99988 83.0001 4.75546 83.0001 5.7485C83.0001 6.71971 83.7445 7.4968 84.8957 7.4968H84.918H84.9181ZM88.5315 18.9999H91.9618V13.3481C91.9618 13.0456 91.9841 12.7435 92.0746 12.5273C92.3226 11.9229 92.8871 11.297 93.8346 11.297C95.0759 11.297 95.5725 12.2251 95.5725 13.5856V18.9998H99.0026V13.1968C99.0026 10.0882 97.3103 8.64181 95.0533 8.64181C93.2028 8.64181 92.3903 9.65614 91.939 10.347H91.9619V8.8792H88.5315C88.5766 9.82885 88.5315 18.9997 88.5315 18.9997L88.5315 18.9999Z" fill="white"/>
</g>
<g clip-path="url(#clip2_444_239)">
<path d="M59.9998 6.70478C59.3258 6.98925 58.6108 7.17597 57.8788 7.25875C58.6413 6.82334 59.2268 6.13386 59.5025 5.31235C58.7776 5.72215 57.9845 6.01089 57.1575 6.16608C56.4838 5.48235 55.5241 5.05505 54.4619 5.05505C52.4224 5.05505 50.7689 6.63029 50.7689 8.57314C50.7689 8.84892 50.8016 9.1174 50.8645 9.37496C47.7954 9.22819 45.0743 7.82759 43.2529 5.69905C42.935 6.21866 42.7529 6.82307 42.7529 7.46774C42.7529 8.68835 43.4049 9.76515 44.3958 10.3961C43.8093 10.3786 43.2358 10.2277 42.7231 9.95599C42.7228 9.97073 42.7228 9.98546 42.7228 10.0003C42.7228 11.7049 43.9958 13.1268 45.6851 13.45C45.1413 13.5909 44.5709 13.6115 44.0174 13.5103C44.4873 14.908 45.8512 15.9251 47.4671 15.9536C46.2032 16.8972 44.6109 17.4597 42.8808 17.4597C42.5826 17.4597 42.2887 17.443 41.9998 17.4105C43.6341 18.4087 45.5752 18.9911 47.6607 18.9911C54.4534 18.9911 58.1678 13.6302 58.1678 8.98115C58.1678 8.82855 58.1642 8.67683 58.1571 8.52598C58.88 8.02807 59.5041 7.41135 59.9998 6.70478Z" fill="white"/>
</g>
<g clip-path="url(#clip3_444_239)">
<path d="M9.78669 19V12.4308H7.99976V10.0656H9.78669V8.04535C9.78669 6.45785 10.8422 5 13.2745 5C14.2592 5 14.9874 5.09177 14.9874 5.09177L14.93 7.30049C14.93 7.30049 14.1874 7.29347 13.377 7.29347C12.4999 7.29347 12.3594 7.68638 12.3594 8.33851V10.0656H14.9998L14.8849 12.4308H12.3594V19H9.78669Z" fill="white"/>
</g>
<defs>
<clipPath id="clip0_444_239">
<rect width="16" height="18" fill="white" transform="translate(122 3)"/>
</clipPath>
<clipPath id="clip1_444_239">
<rect width="16" height="15" fill="white" transform="translate(83.0001 4)"/>
</clipPath>
<clipPath id="clip2_444_239">
<rect width="18" height="14" fill="white" transform="translate(41.9998 5)"/>
</clipPath>
<clipPath id="clip3_444_239">
<rect width="7" height="14" fill="white" transform="translate(7.99976 5)"/>
</clipPath>
</defs>
</svg>
